<svg xmlns="http://www.w3.org/2000/svg" viewBox="0 0 480.64 150.8"><defs><style>.cls-1,.cls-2{fill:none;stroke:#d8e7e8;stroke-miterlimit:10;}.cls-1{stroke-width:6px;}.cls-2{stroke-width:2px;}</style></defs><g id="Layer_2" data-name="Layer 2"><g id="Layer_1-2" data-name="Layer 1"><g id="Layer_1-2-2" data-name="Layer 1-2"><polyline class="cls-1" points="2.72 83.97 33.98 16.57 65.24 83.97"/><path class="cls-1" d="M37.69,84,29.15,63.59Z"/><line class="cls-1" x1="87.96" y1="13.95" x2="87.96" y2="66.04"/><polyline class="cls-1" points="87.96 73.59 87.96 82.12 122.18 82.12"/><line class="cls-1" x1="126.52" y1="15.55" x2="158.94" y2="15.55"/><line class="cls-1" x1="162.52" y1="15.55" x2="168.9" y2="15.55"/><line class="cls-1" x1="147.2" y1="15.55" x2="147.2" y2="84.99"/><polyline class="cls-1" points="213.41 17.3 183.53 17.3 183.53 58.92"/><line class="cls-2" x1="191.7" y1="63" x2="180.64" y2="63"/><polyline class="cls-1" points="183.61 62 183.61 83.24 216.02 83.24"/><path class="cls-1" d="M224,42V16.44c1.3-.24,17.54-3,28.42,8.51a29.59,29.59,0,0,1,7.66,17A20.3,20.3,0,0,1,257,55.27c-5.29,8-14.53,8.86-15.66,8.94H224"/><line class="cls-1" x1="262.46" y1="84.55" x2="244.61" y2="63.68"/><line class="cls-1" x1="281.5" y1="16.23" x2="281.5" y2="84.31"/><path class="cls-1" d="M300.73,36c0-3.74,8.86-18.65,29.28-18.55,19.81.09,30.88,13,31.83,30.47,1,18.48-11.19,35.23-32.17,35.23a43.29,43.29,0,0,1-19.07-4.61"/><polyline class="cls-1" points="393.32 86.23 393.32 20.87 403.03 37.72"/><polyline class="cls-1" points="423.45 60.61 433.15 76.69 433.15 14.31"/></g><line class="cls-1" x1="87.96" y1="13.95" x2="87.96" y2="66.04"/><polyline class="cls-1" points="87.96 73.59 87.96 82.12 122.18 82.12"/><line class="cls-2" x1="151.73" y1="122.63" x2="151.73" y2="150.8"/><polyline class="cls-2" points="168.18 149.8 187.06 102.64 205.94 149.8"/><path class="cls-2" d="M189.3,149.8l-5.16-14.67Z"/><polyline class="cls-2" points="219.31 149.8 219.31 104.3 225.09 116.03"/><polyline class="cls-2" points="241.6 133.83 247.44 145.57 247.44 100.03"/><polyline class="cls-2" points="279.65 101.02 258.01 101.02 258.01 131.06"/><line class="cls-2" x1="263.93" y1="133.99" x2="255.92" y2="133.99"/><polyline class="cls-2" points="258.07 133.27 258.07 148.79 281.54 148.79"/><line class="cls-2" x1="286.35" y1="100.03" x2="286.35" y2="137.29"/><polyline class="cls-2" points="286.35 142.69 286.35 148.79 311.45 148.79"/><path class="cls-2" d="M151.73,119.1V100.72l3.69,0h0c11.32-.3,19.26,9.33,18.05,17.71-1,7-8.45,13.25-17.61,12.9"/><line class="cls-2" x1="457.51" y1="1.41" x2="459.95" y2="1.41"/><line class="cls-2" x1="443.74" y1="1.41" x2="456.14" y2="1.41"/><line class="cls-2" x1="451.65" y1="1.41" x2="451.65" y2="18.99"/><path class="cls-2" d="M466.53,19V2.71l8,8.51"/><path class="cls-2" d="M474.87,8.3l4.77-5.59V19"/></g></g></svg>