<svg xmlns="http://www.w3.org/2000/svg" xmlns:xlink="http://www.w3.org/1999/xlink" viewBox="0 0 233.91 216.35"><defs><style>.cls-1{fill:url(#linear-gradient);}</style><linearGradient id="linear-gradient" x1="-94.95" y1="-1126.15" x2="89.71" y2="-986.09" gradientTransform="matrix(1, 0, 0, -1, 146.4, -942.54)" gradientUnits="userSpaceOnUse"><stop offset="0" stop-color="#3d5afe"/><stop offset="0.66" stop-color="#9c27b0"/></linearGradient></defs><g id="Layer_2" data-name="Layer 2"><g id="Layer_1-2" data-name="Layer 1"><path class="cls-1" d="M210.4,80.14A16.88,16.88,0,0,0,193.48,97V199.05a16.89,16.89,0,1,0,33.77.82c0-.27,0-.55,0-.82v-102A16.89,16.89,0,0,0,210.4,80.14Zm21.45-46.92h0l-21.6,40c-3.89-7.3-20.87-39.09-21.12-39.64l-.39-.88-.08-.18h0a23.52,23.52,0,1,1,43.18.66Zm-9.72-11.65A11.73,11.73,0,1,0,210.4,33.3a11.73,11.73,0,0,0,11.73-11.73ZM106.91,139.42v51.94q0,12.3-4.51,18.45A14.11,14.11,0,0,1,90.48,216a13.73,13.73,0,0,1-11.63-6.16q-4.45-6.15-4.45-18.45V129.11q0-14.73-.81-22.89a28.25,28.25,0,0,0-4.4-13.38q-3.59-5.22-11.34-5.22-15.49,0-20.42,13.16t-4.92,37.78v52.8q0,12.16-4.45,18.38A13.8,13.8,0,0,1,16.32,216q-7.19,0-11.75-6.23T0,191.36V79.6q0-11,4.11-16.74a12.71,12.71,0,0,1,10.82-5.72,13.38,13.38,0,0,1,10.82,5.37q4.34,5.35,4.33,14.8v3.74Q38.3,68.88,47.67,63.16A39.22,39.22,0,0,1,68.5,57.44q11.91,0,20.48,5.86t14.11,17.75q8-12,17.12-17.82a37,37,0,0,1,20.25-5.79q13,0,22.33,6.29a37.62,37.62,0,0,1,14,18q4,10.59,4.05,33.34v76.27q0,12.3-4.51,18.45A14.07,14.07,0,0,1,164.4,216q-7.17,0-11.74-6.23t-4.57-18.38V125.68a183.77,183.77,0,0,0-.87-20.18,25.84,25.84,0,0,0-4.69-12.73q-3.81-5.16-11.57-5.15a18.42,18.42,0,0,0-11.85,4.58,29.87,29.87,0,0,0-8.74,12.3Q106.92,114.37,106.91,139.42Z"/></g></g></svg>